# xmcd
#
# Track frame offsets:
#	200
#	3427
#	10565
#	18702
#	29707
#	40152
#	48780
#	62025
#	68132
#	83017
#	92665
#	101527
#	114300
#	129277
#	139510
#	150342
#	161335
#	176497
#	187120
#	196275
#	200045
#	209827
#	219727
#	230120
#	242912
#	254430
#	263957
#	278495
#	287697
#	294910
#
# Disc length: 4064 seconds
#
# Revision: 1
# Processed by: cddbd v1.4PL0 Copyright (c) Steve Scherf et al.
# Submitted via: audiograbber 1.82.02
#
DISCID=ac0fde1e
DTITLE=The Stanley Brothers - Stanley Series, Volume 3, Number 4
DYEAR=1900
DGENRE=Bluegrass
TTITLE0=Dickenson County Breakdown
TTITLE1=Boil Them Cabbage Down
TTITLE2=Nobody's Business
TTITLE3=If That's The Way You Feel
TTITLE4=Big Tilda
TTITLE5=Gonna Paint The Town
TTITLE6=How I Long To See The Old Folks
TTITLE7=Daybreak In Dixie
TTITLE8=The Memory Of Your Smile
TTITLE9=How Mountain Girls Can Love
TTITLE10=Little Birdie
TTITLE11=The Fields Have Turned Brown
TTITLE12=East Virginia Blues
TTITLE13=Old Salty Dog Blues
TTITLE14=Pretty Polly
TTITLE15=I'm A Man Of Constant Sorrow
TTITLE16=Mother's Not Dead
TTITLE17=Send Me The Pillow That You Dream On
TTITLE18=Baby Girl
TTITLE19=Dickenson County Breakdown
TTITLE20=John Henry
TTITLE21=Just A Little Talk With Jeses
TTITLE22=That Happy Night
TTITLE23=They're At Rest Together
TTITLE24=Think Of What You've Donw
TTITLE25=Uncle Pen
TTITLE26=White Dove
TTITLE27=Handsome Molly
TTITLE28=Pike County Breakdown
TTITLE29=If That's The Way You Feel
EXTD=
EXTT0=
EXTT1=
EXTT2=
EXTT3=
EXTT4=
EXTT5=
EXTT6=
EXTT7=
EXTT8=
EXTT9=
EXTT10=
EXTT11=
EXTT12=
EXTT13=
EXTT14=
EXTT15=
EXTT16=
EXTT17=
EXTT18=
EXTT19=
EXTT20=
EXTT21=
EXTT22=
EXTT23=
EXTT24=
EXTT25=
EXTT26=
EXTT27=
EXTT28=
EXTT29=
PLAYORDER=
